<svg width="164" height="68" viewBox="0 0 164 68" fill="none" xmlns="http://www.w3.org/2000/svg">
<rect x="6" y="7" width="158" height="61" rx="6" fill="#F5EE84"/>
<rect x="6.5" y="7.5" width="157" height="60" rx="5.5" stroke="#474306"/>
<path d="M53.88 44L50.56 38.3H48.36V44H46.54V30.06H51.04C52.0933 30.06 52.98 30.24 53.7 30.6C54.4333 30.96 54.98 31.4467 55.34 32.06C55.7 32.6733 55.88 33.3733 55.88 34.16C55.88 35.12 55.6 35.9667 55.04 36.7C54.4933 37.4333 53.6667 37.92 52.56 38.16L56.06 44H53.88ZM48.36 36.84H51.04C52.0267 36.84 52.7667 36.6 53.26 36.12C53.7533 35.6267 54 34.9733 54 34.16C54 33.3333 53.7533 32.6933 53.26 32.24C52.78 31.7867 52.04 31.56 51.04 31.56H48.36V36.84ZM68.708 38.1C68.708 38.4467 68.688 38.8133 68.648 39.2H59.888C59.9546 40.28 60.3213 41.1267 60.988 41.74C61.668 42.34 62.488 42.64 63.448 42.64C64.2346 42.64 64.888 42.46 65.408 42.1C65.9413 41.7267 66.3146 41.2333 66.528 40.62H68.488C68.1946 41.6733 67.608 42.5333 66.728 43.2C65.848 43.8533 64.7546 44.18 63.448 44.18C62.408 44.18 61.4746 43.9467 60.648 43.48C59.8346 43.0133 59.1946 42.3533 58.728 41.5C58.2613 40.6333 58.028 39.6333 58.028 38.5C58.028 37.3667 58.2546 36.3733 58.708 35.52C59.1613 34.6667 59.7946 34.0133 60.608 33.56C61.4346 33.0933 62.3813 32.86 63.448 32.86C64.488 32.86 65.408 33.0867 66.208 33.54C67.008 33.9933 67.6213 34.62 68.048 35.42C68.488 36.2067 68.708 37.1 68.708 38.1ZM66.828 37.72C66.828 37.0267 66.6746 36.4333 66.368 35.94C66.0613 35.4333 65.6413 35.0533 65.108 34.8C64.588 34.5333 64.008 34.4 63.368 34.4C62.448 34.4 61.6613 34.6933 61.008 35.28C60.368 35.8667 60.0013 36.68 59.908 37.72H66.828ZM74.9903 44.18C74.1503 44.18 73.397 44.04 72.7303 43.76C72.0636 43.4667 71.537 43.0667 71.1503 42.56C70.7636 42.04 70.5503 41.4467 70.5103 40.78H72.3903C72.4436 41.3267 72.697 41.7733 73.1503 42.12C73.617 42.4667 74.2236 42.64 74.9703 42.64C75.6636 42.64 76.2103 42.4867 76.6103 42.18C77.0103 41.8733 77.2103 41.4867 77.2103 41.02C77.2103 40.54 76.997 40.1867 76.5703 39.96C76.1436 39.72 75.4836 39.4867 74.5903 39.26C73.777 39.0467 73.1103 38.8333 72.5903 38.62C72.0836 38.3933 71.6436 38.0667 71.2703 37.64C70.9103 37.2 70.7303 36.6267 70.7303 35.92C70.7303 35.36 70.897 34.8467 71.2303 34.38C71.5636 33.9133 72.037 33.5467 72.6503 33.28C73.2636 33 73.9636 32.86 74.7503 32.86C75.9636 32.86 76.9436 33.1667 77.6903 33.78C78.437 34.3933 78.837 35.2333 78.8903 36.3H77.0703C77.0303 35.7267 76.797 35.2667 76.3703 34.92C75.957 34.5733 75.397 34.4 74.6903 34.4C74.037 34.4 73.517 34.54 73.1303 34.82C72.7436 35.1 72.5503 35.4667 72.5503 35.92C72.5503 36.28 72.6636 36.58 72.8903 36.82C73.1303 37.0467 73.4236 37.2333 73.7703 37.38C74.1303 37.5133 74.6236 37.6667 75.2503 37.84C76.037 38.0533 76.677 38.2667 77.1703 38.48C77.6636 38.68 78.0836 38.9867 78.4303 39.4C78.7903 39.8133 78.977 40.3533 78.9903 41.02C78.9903 41.62 78.8236 42.16 78.4903 42.64C78.157 43.12 77.6836 43.5 77.0703 43.78C76.4703 44.0467 75.777 44.18 74.9903 44.18ZM91.2795 33.04V44H89.4595V42.38C89.1129 42.94 88.6262 43.38 87.9995 43.7C87.3862 44.0067 86.7062 44.16 85.9595 44.16C85.1062 44.16 84.3395 43.9867 83.6595 43.64C82.9795 43.28 82.4395 42.7467 82.0395 42.04C81.6529 41.3333 81.4595 40.4733 81.4595 39.46V33.04H83.2595V39.22C83.2595 40.3 83.5329 41.1333 84.0795 41.72C84.6262 42.2933 85.3729 42.58 86.3195 42.58C87.2929 42.58 88.0595 42.28 88.6195 41.68C89.1795 41.08 89.4595 40.2067 89.4595 39.06V33.04H91.2795ZM107.533 32.84C108.386 32.84 109.146 33.02 109.813 33.38C110.479 33.7267 111.006 34.2533 111.393 34.96C111.779 35.6667 111.973 36.5267 111.973 37.54V44H110.173V37.8C110.173 36.7067 109.899 35.8733 109.353 35.3C108.819 34.7133 108.093 34.42 107.173 34.42C106.226 34.42 105.473 34.7267 104.913 35.34C104.353 35.94 104.073 36.8133 104.073 37.96V44H102.273V37.8C102.273 36.7067 101.999 35.8733 101.453 35.3C100.919 34.7133 100.193 34.42 99.2725 34.42C98.3258 34.42 97.5725 34.7267 97.0125 35.34C96.4525 35.94 96.1725 36.8133 96.1725 37.96V44H94.3525V33.04H96.1725V34.62C96.5325 34.0467 97.0125 33.6067 97.6125 33.3C98.2258 32.9933 98.8992 32.84 99.6325 32.84C100.553 32.84 101.366 33.0467 102.073 33.46C102.779 33.8733 103.306 34.48 103.653 35.28C103.959 34.5067 104.466 33.9067 105.173 33.48C105.879 33.0533 106.666 32.84 107.533 32.84ZM124.958 38.1C124.958 38.4467 124.938 38.8133 124.898 39.2H116.138C116.205 40.28 116.571 41.1267 117.238 41.74C117.918 42.34 118.738 42.64 119.698 42.64C120.485 42.64 121.138 42.46 121.658 42.1C122.191 41.7267 122.565 41.2333 122.778 40.62H124.738C124.445 41.6733 123.858 42.5333 122.978 43.2C122.098 43.8533 121.005 44.18 119.698 44.18C118.658 44.18 117.725 43.9467 116.898 43.48C116.085 43.0133 115.445 42.3533 114.978 41.5C114.511 40.6333 114.278 39.6333 114.278 38.5C114.278 37.3667 114.505 36.3733 114.958 35.52C115.411 34.6667 116.045 34.0133 116.858 33.56C117.685 33.0933 118.631 32.86 119.698 32.86C120.738 32.86 121.658 33.0867 122.458 33.54C123.258 33.9933 123.871 34.62 124.298 35.42C124.738 36.2067 124.958 37.1 124.958 38.1ZM123.078 37.72C123.078 37.0267 122.925 36.4333 122.618 35.94C122.311 35.4333 121.891 35.0533 121.358 34.8C120.838 34.5333 120.258 34.4 119.618 34.4C118.698 34.4 117.911 34.6933 117.258 35.28C116.618 35.8667 116.251 36.68 116.158 37.72H123.078Z" fill="#474306"/>
</svg>
